<svg width="202" height="58" viewBox="0 0 202 58" fill="none" xmlns="http://www.w3.org/2000/svg">
<path d="M40.2656 28.9564C40.2656 35.7668 34.7446 41.2877 27.9342 41.2877C21.1238 41.2877 15.6028 35.7668 15.6028 28.9564C15.6028 22.146 21.1238 16.6251 27.9342 16.6251C34.7446 16.6251 40.2656 22.146 40.2656 28.9564ZM17.2713 28.9564C17.2713 35.1925 21.698 39.6192 27.9342 39.6192C34.1704 39.6192 38.5971 35.1925 38.5971 28.9564C38.5971 22.7203 34.1704 18.2936 27.9342 18.2936C21.698 18.2936 17.2713 22.7203 17.2713 28.9564Z" fill="url(#paint0_linear_15_152)"/>
<path d="M40.2656 28.9564C40.2656 35.7668 34.7446 41.2877 27.9342 41.2877C21.1238 41.2877 15.6028 35.7668 15.6028 28.9564C15.6028 22.146 21.1238 16.6251 27.9342 16.6251C34.7446 16.6251 40.2656 22.146 40.2656 28.9564ZM17.2713 28.9564C17.2713 35.1925 21.698 39.6192 27.9342 39.6192C34.1704 39.6192 38.5971 35.1925 38.5971 28.9564C38.5971 22.7203 34.1704 18.2936 27.9342 18.2936C21.698 18.2936 17.2713 22.7203 17.2713 28.9564Z" fill="url(#paint1_radial_15_152)" fill-opacity="0.69"/>
<path d="M47.9412 28.9564C47.9412 40.0059 38.9838 48.9633 27.9342 48.9633C16.8846 48.9633 7.92719 40.0059 7.92719 28.9564C7.92719 17.9069 16.8846 8.94946 27.9342 8.94946C38.9838 8.94946 47.9412 17.9069 47.9412 28.9564ZM9.61418 28.9564C9.61418 39.0742 17.8163 47.2763 27.9342 47.2763C38.0521 47.2763 46.2542 39.0742 46.2542 28.9564C46.2542 18.8386 38.0521 10.6365 27.9342 10.6365C17.8163 10.6365 9.61418 18.8386 9.61418 28.9564Z" fill="url(#paint2_linear_15_152)"/>
<path d="M47.9412 28.9564C47.9412 40.0059 38.9838 48.9633 27.9342 48.9633C16.8846 48.9633 7.92719 40.0059 7.92719 28.9564C7.92719 17.9069 16.8846 8.94946 27.9342 8.94946C38.9838 8.94946 47.9412 17.9069 47.9412 28.9564ZM9.61418 28.9564C9.61418 39.0742 17.8163 47.2763 27.9342 47.2763C38.0521 47.2763 46.2542 39.0742 46.2542 28.9564C46.2542 18.8386 38.0521 10.6365 27.9342 10.6365C17.8163 10.6365 9.61418 18.8386 9.61418 28.9564Z" fill="url(#paint3_radial_15_152)" fill-opacity="0.69"/>
<ellipse cx="39.0073" cy="44.1819" rx="2.51661" ry="2.5166" fill="#FF0000"/>
<ellipse cx="19.126" cy="36.3804" rx="2.51661" ry="2.5166" fill="#00FF11"/>
<ellipse cx="37.8748" cy="23.1682" rx="2.51661" ry="2.5166" fill="#00FFEA"/>
<path d="M19.6768 1.4869C25.3721 -0.257428 31.4774 -0.127979 37.0938 1.85604C42.7102 3.84013 47.542 7.57453 50.8779 12.5094L45.9219 15.8599C43.3031 11.9861 39.5096 9.05416 35.1006 7.49666C30.6918 5.9393 25.8995 5.8383 21.4287 7.2076C16.9579 8.57698 13.0441 11.3447 10.2637 15.1041C7.48329 18.8636 5.98248 23.4165 5.98242 28.0924H22.8164C23.2025 25.6587 25.3179 23.7976 27.8711 23.7974C30.4245 23.7974 32.5407 25.6585 32.9268 28.0924H55.6592V29.9078C55.6592 35.8643 53.7477 41.6636 50.2061 46.4527C46.6641 51.242 41.678 54.7688 35.9824 56.5133C30.287 58.2576 24.1819 58.1282 18.5654 56.1441C12.949 54.16 8.1172 50.4257 4.78125 45.4908L9.73828 42.1402C12.3569 46.0139 16.1498 48.9451 20.5586 50.5025C24.9674 52.06 29.7597 52.1609 34.2305 50.7916C38.7012 49.4222 42.6143 46.6544 45.3945 42.8951C48.1748 39.1358 49.6758 34.5835 49.6758 29.9078H32.8887C32.4162 32.2363 30.3494 33.9898 27.8711 33.9898C25.393 33.9897 23.3269 32.2362 22.8545 29.9078H0V28.0924C6.08852e-05 22.1359 1.9114 16.3365 5.45312 11.5474C8.99508 6.75823 13.9812 3.23137 19.6768 1.4869ZM27.8711 25.8824C26.2008 25.8826 24.8469 27.2304 24.8467 28.8931C24.8467 30.556 26.2007 31.9047 27.8711 31.9049C29.5416 31.9049 30.8965 30.5562 30.8965 28.8931C30.8963 27.2303 29.5415 25.8824 27.8711 25.8824ZM22.7578 28.6519C22.7539 28.7319 22.752 28.8123 22.752 28.8931C22.752 28.8123 22.7541 28.7319 22.7578 28.6519ZM32.9902 28.8931C32.9902 28.8195 32.9875 28.7463 32.9844 28.6734C32.9875 28.7463 32.9902 28.8195 32.9902 28.8931ZM22.7715 28.4517C22.768 28.4907 22.7653 28.5298 22.7627 28.5689C22.7652 28.5297 22.7681 28.4907 22.7715 28.4517ZM32.9756 28.523C32.9734 28.4937 32.9714 28.4644 32.9688 28.4351C32.9714 28.4644 32.9735 28.4937 32.9756 28.523ZM32.9561 28.315C32.9528 28.2863 32.9491 28.2577 32.9453 28.2291C32.9491 28.2577 32.9528 28.2863 32.9561 28.315Z" fill="url(#paint4_linear_15_152)"/>
<path d="M144.282 25.3642C144.867 25.865 145.391 26.4017 145.779 27.0697C145.905 26.9129 146.03 26.7559 146.155 26.5983C146.284 26.436 146.414 26.2747 146.544 26.1136C146.579 26.0692 146.614 26.0248 146.65 25.9791C147.457 24.9921 148.731 24.3973 149.986 24.265C151.956 24.181 153.591 24.4503 155.105 25.7983C156.253 26.8841 156.82 28.3818 156.934 29.9381C156.943 30.2855 156.942 30.6329 156.941 30.9804C156.941 31.0853 156.941 31.1903 156.941 31.2953C156.941 31.5788 156.941 31.8623 156.941 32.1458C156.94 32.4426 156.94 32.7394 156.94 33.0362C156.94 33.5976 156.939 34.159 156.939 34.7205C156.938 35.3599 156.938 35.9993 156.937 36.6387C156.937 37.9535 156.936 39.2682 156.934 40.583C155.988 40.583 155.041 40.583 154.066 40.583C154.064 40.1305 154.064 40.1305 154.063 39.6688C154.06 38.6697 154.056 37.6706 154.051 36.6715C154.048 36.066 154.045 35.4606 154.044 34.8551C154.042 34.3269 154.04 33.7988 154.037 33.2706C154.036 32.9913 154.034 32.7121 154.034 32.4328C154.034 32.1691 154.032 31.9054 154.03 31.6417C154.03 31.5458 154.03 31.4498 154.03 31.3538C154.031 30.1205 153.838 28.9107 152.982 27.9621C152.169 27.2569 151.233 27.0629 150.177 27.1334C149.43 27.2239 148.761 27.4008 148.253 27.986C147.674 28.772 147.304 29.6606 147.299 30.6411C147.299 30.684 147.298 30.7268 147.298 30.7709C147.297 30.9131 147.297 31.0553 147.296 31.1975C147.295 31.2999 147.295 31.4023 147.294 31.5048C147.292 31.7819 147.291 32.0591 147.29 32.3363C147.288 32.6263 147.287 32.9163 147.285 33.2063C147.282 33.7551 147.279 34.3039 147.276 34.8527C147.273 35.4776 147.269 36.1026 147.266 36.7275C147.259 38.0127 147.252 39.2978 147.245 40.583C146.299 40.583 145.352 40.583 144.377 40.583C144.376 40.3042 144.374 40.0255 144.373 39.7382C144.369 38.8129 144.364 37.8876 144.359 36.9623C144.355 36.4018 144.352 35.8413 144.35 35.2807C144.348 34.7915 144.345 34.3023 144.342 33.8131C144.341 33.5547 144.339 33.2963 144.338 33.0378C144.427 30.3279 144.427 30.3279 143.304 27.9588C142.648 27.3326 141.725 27.1307 140.843 27.1095C140.041 27.1295 139.172 27.2428 138.577 27.8326C137.939 28.6125 137.552 29.4453 137.546 30.4572C137.546 30.5008 137.546 30.5444 137.545 30.5893C137.545 30.7341 137.544 30.879 137.543 31.0238C137.543 31.1281 137.542 31.2324 137.542 31.3367C137.54 31.6191 137.538 31.9014 137.537 32.1837C137.536 32.4791 137.534 32.7744 137.532 33.0698C137.529 33.6288 137.526 34.1877 137.524 34.7466C137.52 35.3831 137.517 36.0196 137.513 36.6561C137.506 37.9651 137.499 39.274 137.493 40.583C136.546 40.583 135.6 40.583 134.624 40.583C134.62 39.1589 134.617 37.7348 134.614 36.3107C134.613 35.6494 134.612 34.988 134.61 34.3267C134.608 33.7497 134.607 33.1727 134.606 32.5957C134.606 32.2907 134.606 31.9857 134.604 31.6807C134.595 29.5167 134.622 27.6652 136.201 26.0107C136.319 25.8869 136.421 25.7626 136.525 25.6275C138.262 23.6099 142.359 23.7866 144.282 25.3642Z" fill="white"/>
<path d="M105.263 24.2489C105.309 24.2489 105.355 24.2488 105.402 24.2488C107.597 24.2521 109.405 25.0454 110.976 26.5596C111.02 26.5998 111.065 26.6401 111.11 26.6816C111.682 27.2171 112.138 27.8954 112.562 28.5515C112.604 28.6162 112.645 28.681 112.689 28.7477C112.761 28.918 112.761 28.918 112.722 29.042C112.607 29.2125 112.481 29.2898 112.306 29.3986C112.239 29.4405 112.173 29.4824 112.104 29.5256C112.033 29.5696 111.962 29.6136 111.888 29.659C111.778 29.7283 111.668 29.7978 111.557 29.8672C111.449 29.9353 111.341 30.0031 111.233 30.0709C111.004 30.2155 110.778 30.364 110.554 30.5155C109.979 30.9019 109.398 31.278 108.818 31.6557C108.475 31.8795 108.132 32.1039 107.789 32.3282C107.209 32.7076 106.629 33.0864 106.048 33.4648C105.654 33.7218 105.26 33.9792 104.866 34.2368C104.657 34.3736 104.448 34.5104 104.239 34.6471C103.976 34.8184 103.715 34.9902 103.453 35.1625C103.337 35.2389 103.22 35.3154 103.104 35.3918C103.05 35.4272 102.997 35.4625 102.942 35.4989C102.894 35.5307 102.845 35.5625 102.795 35.5952C102.753 35.6231 102.711 35.6509 102.667 35.6795C102.562 35.7384 102.562 35.7384 102.435 35.7384C102.394 35.6659 102.354 35.5935 102.313 35.5188C102.287 35.4716 102.261 35.4243 102.234 35.3756C102.176 35.2717 102.119 35.1678 102.061 35.0638C101.923 34.815 101.784 34.5674 101.639 34.3229C101.615 34.2825 101.591 34.2421 101.567 34.2005C101.502 34.0908 101.436 33.9815 101.37 33.8722C101.287 33.6987 101.287 33.6987 101.351 33.5074C101.447 33.4267 101.447 33.4267 101.572 33.3454C101.62 33.3143 101.667 33.2832 101.716 33.2511C101.768 33.2176 101.82 33.184 101.874 33.1494C101.929 33.1136 101.984 33.0779 102.04 33.0411C102.159 32.9634 102.278 32.8859 102.398 32.8086C102.718 32.6012 103.037 32.392 103.357 32.1831C103.423 32.1399 103.489 32.0968 103.557 32.0524C104.248 31.5998 104.933 31.1382 105.618 30.6749C105.673 30.6378 105.727 30.6006 105.784 30.5623C105.838 30.5261 105.891 30.4898 105.946 30.4525C106.052 30.3806 106.159 30.3088 106.265 30.2369C106.316 30.2021 106.368 30.1673 106.421 30.1314C106.868 29.8287 107.318 29.5289 107.768 29.2305C108.098 29.0116 108.422 28.7866 108.743 28.5547C108.873 28.4718 108.873 28.4718 109 28.4718C108.239 27.5344 107.217 27.052 106.024 26.8942C105.933 26.8874 105.841 26.8822 105.749 26.8783C105.696 26.875 105.642 26.8717 105.587 26.8683C104.093 26.8189 102.725 27.2968 101.628 28.3194C100.59 29.3265 100.065 30.6559 100.002 32.0917C99.9921 33.9562 100.592 35.4601 101.891 36.7921C102.936 37.7833 104.241 38.2649 105.669 38.2522C105.748 38.2517 105.826 38.2511 105.906 38.2505C107.16 38.2267 108.369 37.8646 109.319 37.0133C109.369 36.9723 109.42 36.9314 109.472 36.8893C110.631 35.9199 111.161 34.5215 111.613 33.125C112.307 33.4635 112.984 33.8241 113.653 34.2086C113.536 34.7332 113.38 35.2235 113.171 35.7185C113.143 35.7846 113.115 35.8507 113.087 35.9189C112.708 36.796 112.249 37.5721 111.613 38.2881C111.548 38.3671 111.548 38.3671 111.481 38.4477C110.406 39.7152 108.885 40.4459 107.279 40.774C107.209 40.7885 107.139 40.803 107.067 40.8179C105.856 41.0204 104.521 41.0022 103.327 40.7103C103.282 40.6997 103.238 40.6891 103.192 40.6782C101.067 40.157 99.2412 38.7444 98.0904 36.8952C96.9264 34.9484 96.676 32.5053 97.2247 30.3204C97.5312 29.1894 98.0202 28.1437 98.8012 27.2607C98.8486 27.2064 98.8961 27.1521 98.9449 27.0961C99.0863 26.9366 99.2298 26.7795 99.3749 26.6233C99.4107 26.584 99.4466 26.5447 99.4835 26.5043C100.985 24.9228 103.136 24.2507 105.263 24.2489Z" fill="white"/>
<path d="M128.162 25.8143C130.058 27.3021 131.143 29.3362 131.44 31.7151C131.532 32.5337 131.526 33.3531 131.52 34.1758C131.519 34.4022 131.519 34.6285 131.519 34.8549C131.518 35.2808 131.517 35.7068 131.515 36.1327C131.513 36.6188 131.512 37.1048 131.511 37.5909C131.509 38.5883 131.505 39.5856 131.501 40.583C130.554 40.583 129.608 40.583 128.633 40.583C128.631 40.3612 128.63 40.1393 128.629 39.9108C128.624 39.174 128.62 38.4372 128.614 37.7004C128.611 37.2541 128.608 36.8078 128.606 36.3616C128.603 35.9301 128.6 35.4986 128.597 35.0671C128.596 34.9033 128.595 34.7395 128.594 34.5757C128.583 32.257 128.346 30.1559 126.663 28.4105C125.63 27.4512 124.296 27.0808 122.907 27.1177C121.383 27.1898 120.129 27.8276 119.071 28.9182C118.281 29.8265 117.784 31.0268 117.733 32.2328C117.73 32.2845 117.728 32.3362 117.725 32.3894C117.686 33.9655 118.215 35.2865 119.259 36.45C120.213 37.4487 121.529 37.9669 122.896 38.0333C124.553 38.0672 125.973 37.3531 127.217 36.3008C127.358 36.1848 127.358 36.1848 127.485 36.1211C127.51 36.5529 127.526 36.9846 127.538 37.417C127.543 37.5637 127.549 37.7105 127.557 37.8571C127.623 39.0387 127.623 39.0387 127.396 39.3781C127.18 39.5986 126.932 39.7484 126.656 39.8832C126.486 39.9666 126.326 40.0637 126.164 40.161C125.165 40.7416 124.026 40.9274 122.884 40.9216C122.809 40.9213 122.734 40.921 122.657 40.9207C120.57 40.8928 118.726 40.1114 117.223 38.6707C117.171 38.6232 117.12 38.5758 117.067 38.5268C115.704 37.2302 114.8 35.3078 114.729 33.4209C114.679 30.9473 115.165 28.7672 116.925 26.9275C116.981 26.8693 117.037 26.811 117.095 26.751C117.141 26.7013 117.187 26.6516 117.234 26.6003C119.976 23.6987 125.019 23.4323 128.162 25.8143Z" fill="white"/>
<path d="M165.885 24.5651C166.056 24.5654 166.227 24.5657 166.398 24.5659C166.799 24.5665 167.2 24.568 167.6 24.57C168.057 24.5721 168.515 24.5732 168.972 24.5741C169.91 24.5761 170.848 24.5796 171.786 24.5837C171.786 25.4041 171.786 26.2245 171.786 27.0697C171.459 27.0716 171.459 27.0716 171.125 27.0735C170.403 27.0778 169.681 27.0827 168.959 27.088C168.521 27.0912 168.083 27.0942 167.645 27.0966C167.223 27.0989 166.8 27.1019 166.377 27.1053C166.216 27.1064 166.055 27.1074 165.894 27.1081C165.668 27.1092 165.442 27.1111 165.216 27.1131C165.117 27.1133 165.117 27.1133 165.016 27.1135C164.23 27.1224 163.434 27.2139 162.812 27.74C162.487 28.1023 162.446 28.5075 162.456 28.9755C162.501 29.3519 162.638 29.6502 162.907 29.9194C163.195 30.134 163.525 30.2605 163.857 30.3888C163.906 30.4078 163.956 30.4268 164.006 30.4464C164.679 30.7035 165.359 30.9376 166.039 31.1741C166.281 31.2582 166.522 31.3428 166.764 31.4275C166.825 31.4487 166.825 31.4487 166.886 31.4703C166.967 31.4987 167.048 31.527 167.129 31.5554C167.818 31.7969 167.818 31.7969 168.507 32.0373C171.911 33.2227 171.911 33.2227 172.679 34.655C173.137 35.7528 173.147 37.0956 172.714 38.2049C172.252 39.1982 171.546 39.7933 170.536 40.1923C169.638 40.4921 168.757 40.593 167.814 40.5902C167.73 40.5903 167.647 40.5903 167.561 40.5903C167.334 40.5903 167.107 40.5899 166.88 40.5895C166.642 40.5891 166.404 40.589 166.166 40.589C165.717 40.5888 165.267 40.5882 164.817 40.5876C164.305 40.5869 163.793 40.5865 163.281 40.5862C162.227 40.5855 161.174 40.5844 160.121 40.583C160.121 39.7626 160.121 38.9423 160.121 38.0971C160.465 38.0947 160.465 38.0947 160.816 38.0922C161.576 38.0869 162.336 38.0812 163.095 38.0754C163.556 38.0719 164.016 38.0685 164.476 38.0654C164.878 38.0626 165.28 38.0597 165.681 38.0565C165.894 38.0548 166.106 38.0532 166.318 38.0519C166.556 38.0503 166.794 38.0484 167.032 38.0464C167.101 38.046 167.17 38.0457 167.242 38.0453C168.182 38.0582 168.182 38.0582 169.077 37.8222C169.137 37.7961 169.197 37.7701 169.258 37.7432C169.575 37.5704 169.79 37.405 169.905 37.052C170.001 36.5612 170.045 35.967 169.77 35.528C169.134 34.7391 168.037 34.4972 167.113 34.1811C166.789 34.0705 166.466 33.9585 166.144 33.8468C166.078 33.824 166.012 33.8012 165.944 33.7777C165.315 33.5604 164.688 33.3406 164.061 33.1181C163.949 33.0783 163.837 33.0387 163.725 32.9993C161.219 32.1176 161.219 32.1176 160.313 31.2129C160.263 31.1649 160.263 31.1649 160.213 31.1158C159.572 30.4249 159.445 29.3304 159.47 28.4277C159.536 27.4259 159.867 26.5341 160.591 25.8227C162.05 24.5679 164.07 24.5538 165.885 24.5651Z" fill="white"/>
<path d="M65.9821 24.5765C66.0574 24.5765 66.1327 24.5765 66.2103 24.5765C66.4576 24.5765 66.7049 24.577 66.9522 24.5775C67.1243 24.5776 67.2964 24.5777 67.4685 24.5778C67.8741 24.578 68.2798 24.5785 68.6854 24.5791C69.1476 24.5798 69.6098 24.5802 70.0719 24.5805C71.0219 24.5812 71.9718 24.5823 72.9218 24.5837C72.9218 25.4041 72.9218 26.2244 72.9218 27.0697C72.7025 27.0706 72.4832 27.0715 72.2572 27.0725C71.5301 27.0757 70.8029 27.0799 70.0758 27.0847C69.6352 27.0875 69.1947 27.0901 68.7541 27.0917C68.3284 27.0934 67.9027 27.096 67.477 27.0992C67.3151 27.1002 67.1533 27.101 66.9914 27.1014C65.4027 27.0405 65.4027 27.0405 64.0143 27.6862C63.655 28.0884 63.5473 28.4413 63.5517 28.9819C63.6189 29.399 63.804 29.7294 64.1253 30.0018C64.628 30.2954 65.1651 30.4959 65.7142 30.683C65.8324 30.724 65.9505 30.7651 66.0687 30.8061C66.1927 30.849 66.3167 30.8917 66.4407 30.9342C66.6979 31.0226 66.9548 31.1118 67.2117 31.2011C67.5539 31.3201 67.8962 31.4389 68.2385 31.5576C68.8197 31.7591 69.4006 31.9611 69.9803 32.1668C70.08 32.2021 70.1798 32.2371 70.2797 32.2718C71.6393 32.7447 73.1303 33.3687 73.8142 34.7187C74.2547 35.7576 74.2441 37.0381 73.862 38.097C73.4395 39.0845 72.7364 39.7504 71.7468 40.1647C70.5105 40.6118 69.2484 40.6102 67.9508 40.6024C67.7147 40.6012 67.4785 40.6011 67.2424 40.6008C66.7972 40.6002 66.3521 40.5987 65.907 40.5967C65.3993 40.5946 64.8917 40.5936 64.384 40.5926C63.3417 40.5906 62.2993 40.5871 61.2569 40.583C61.2569 39.7626 61.2569 38.9423 61.2569 38.097C61.6009 38.0946 61.6009 38.0946 61.9518 38.0922C62.7115 38.0869 63.4712 38.0812 64.2309 38.0754C64.6913 38.0719 65.1516 38.0685 65.612 38.0653C66.0136 38.0626 66.4152 38.0596 66.8168 38.0564C67.0291 38.0548 67.2414 38.0532 67.4538 38.0518C67.6917 38.0503 67.9297 38.0484 68.1677 38.0464C68.2368 38.046 68.306 38.0456 68.3772 38.0453C69.6361 38.0342 69.6361 38.0342 70.7585 37.5114C71.0525 37.0847 71.1423 36.5673 71.0733 36.0573C70.9557 35.5643 70.7338 35.2457 70.3084 34.9737C69.6086 34.6539 68.8688 34.4154 68.1435 34.1611C67.8072 34.0432 67.4712 33.9242 67.1352 33.8054C66.9951 33.7559 66.855 33.7064 66.7149 33.6569C66.6452 33.6322 66.5754 33.6076 66.5036 33.5822C66.3633 33.5326 66.2231 33.4831 66.0828 33.4335C65.6751 33.2894 65.2676 33.1446 64.8604 32.9989C64.7335 32.9536 64.6065 32.9085 64.4794 32.8637C61.5797 31.8404 61.5797 31.8404 60.9542 30.5635C60.5269 29.5284 60.4156 28.2 60.8107 27.1334C61.2342 26.1188 61.9762 25.4726 62.974 25.0538C63.9404 24.6984 64.9581 24.5731 65.9821 24.5765Z" fill="white"/>
<path d="M191.216 17.0502C191.36 17.0511 191.504 17.052 191.649 17.0528C191.997 17.0547 192.345 17.0584 192.694 17.0621C192.694 17.8825 192.694 18.7028 192.694 19.548C191.518 19.568 191.518 19.568 191.155 19.5728C190.028 19.5935 188.846 19.678 187.946 20.4317C187.849 20.5042 187.849 20.5042 187.722 20.5042C187.704 20.5404 187.687 20.5766 187.669 20.614C187.592 20.7638 187.503 20.9007 187.411 21.042C186.747 22.1373 186.868 23.4004 186.829 24.6474C188.765 24.6474 190.7 24.6474 192.694 24.6474C192.694 25.4678 192.694 26.2881 192.694 27.1333C190.758 27.1333 188.823 27.1333 186.829 27.1333C186.829 31.5717 186.829 36.0101 186.829 40.5829C185.883 40.5829 184.936 40.5829 183.961 40.5829C183.957 38.28 183.953 35.9771 183.951 33.6742C183.951 33.4019 183.951 33.1295 183.95 32.8572C183.95 32.8029 183.95 32.7487 183.95 32.6929C183.949 31.8169 183.948 30.9409 183.946 30.065C183.944 29.1651 183.943 28.2651 183.943 27.3652C183.943 26.8106 183.942 26.2561 183.94 25.7015C183.939 25.3204 183.939 24.9392 183.939 24.5581C183.939 24.3387 183.939 24.1194 183.938 23.9C183.931 22.0945 184.088 20.3515 185.3 18.9106C185.358 18.8333 185.358 18.8333 185.417 18.7545C186.803 17.1118 189.248 17.027 191.216 17.0502Z" fill="white"/>
<path d="M194.032 19.803C194.979 19.803 195.925 19.803 196.901 19.803C196.901 21.4016 196.901 23.0003 196.901 24.6474C198.583 24.6474 200.266 24.6474 202 24.6474C202 25.4677 202 26.2881 202 27.1333C200.317 27.1333 198.634 27.1333 196.901 27.1333C196.906 28.6183 196.906 28.6183 196.914 30.1033C196.917 30.7094 196.921 31.3155 196.923 31.9216C196.924 32.3632 196.926 32.8047 196.929 33.2463C196.931 33.4797 196.932 33.7132 196.932 33.9466C196.933 34.2083 196.935 34.4699 196.937 34.7315C196.937 34.8075 196.937 34.8836 196.937 34.962C196.945 35.746 197.04 36.6394 197.574 37.2559C198.427 38.0501 199.799 37.9979 200.893 38.0133C201.258 38.0199 201.623 38.0264 202 38.0332C202 38.8746 202 39.716 202 40.5829C201.622 40.5858 201.243 40.5884 200.865 40.5899C200.737 40.5905 200.608 40.5914 200.48 40.5925C198.77 40.607 196.904 40.526 195.498 39.4355C195.442 39.3974 195.385 39.3593 195.327 39.32C194.432 38.4732 194.072 37.0413 194.026 35.8402C194.024 35.6659 194.024 35.4918 194.025 35.3175C194.025 35.2509 194.024 35.1844 194.024 35.1158C194.024 34.8937 194.025 34.6715 194.025 34.4493C194.025 34.2897 194.025 34.1302 194.025 33.9706C194.025 33.6274 194.025 33.2843 194.026 32.9411C194.026 32.445 194.026 31.9489 194.026 31.4527C194.026 30.6477 194.027 29.8427 194.027 29.0377C194.028 28.2559 194.028 27.4741 194.029 26.6923C194.029 26.6441 194.029 26.5958 194.029 26.5461C194.029 26.3042 194.029 26.0622 194.029 25.8203C194.03 23.8145 194.031 21.8087 194.032 19.803Z" fill="white"/>
<path d="M76.7464 19.803C77.6929 19.803 78.6395 19.803 79.6148 19.803C79.6148 21.4016 79.6148 23.0003 79.6148 24.6474C81.2976 24.6474 82.9804 24.6474 84.7142 24.6474C84.7142 25.4677 84.7142 26.2881 84.7142 27.1333C83.0314 27.1333 81.3486 27.1333 79.6148 27.1333C79.6229 28.5796 79.6229 28.5796 79.6321 30.0258C79.6356 30.5434 79.639 31.061 79.6417 31.5786C79.6438 31.9887 79.6463 32.3988 79.6494 32.8089C79.651 33.0256 79.6524 33.2423 79.6532 33.459C79.5791 35.4801 79.5791 35.4801 80.3279 37.2887C81.0075 37.9186 82.0974 37.9698 82.9774 37.9896C83.022 37.9908 83.0665 37.992 83.1124 37.9932C83.2758 37.9975 83.4392 38.0014 83.6027 38.0053C83.9694 38.0145 84.3362 38.0237 84.7142 38.0332C84.7142 38.8746 84.7142 39.716 84.7142 40.5829C79.4986 40.6471 79.4986 40.6471 77.9592 39.194C77.3458 38.525 77.1014 37.6906 76.9217 36.8221C76.9112 36.7723 76.9008 36.7224 76.8901 36.6711C76.7062 35.7153 76.7375 34.7378 76.7391 33.7691C76.7391 33.6164 76.7391 33.4636 76.7391 33.3109C76.7391 32.9413 76.7394 32.5717 76.7398 32.2021C76.7402 31.7715 76.7403 31.3409 76.7404 30.9103C76.7405 30.1426 76.741 29.3749 76.7416 28.6072C76.7421 27.8621 76.7426 27.1169 76.7429 26.3717C76.7429 26.3257 76.7429 26.2796 76.7429 26.2322C76.743 26.0013 76.7431 25.7703 76.7432 25.5393C76.7438 23.6272 76.745 21.7151 76.7464 19.803Z" fill="white"/>
<path d="M95.7296 24.1934C95.8115 24.1932 95.8935 24.193 95.9779 24.1929C96.3035 24.2029 96.6282 24.2356 96.9527 24.2651C96.9527 25.1696 96.9527 26.0741 96.9527 27.006C96.5583 27.0158 96.5583 27.0158 96.1559 27.0259C94.7172 27.0742 93.2831 27.3364 92.1984 28.366C91.0728 29.6081 90.7643 31.3187 90.7566 32.9415C90.756 33.0242 90.7553 33.107 90.7547 33.1923C90.753 33.4178 90.7516 33.6434 90.7503 33.8689C90.7489 34.1052 90.7472 34.3414 90.7455 34.5777C90.7423 35.0244 90.7394 35.4712 90.7367 35.9179C90.7335 36.4268 90.73 36.9356 90.7265 37.4445C90.7193 38.4907 90.7125 39.5369 90.7059 40.583C89.7594 40.583 88.8128 40.583 87.8375 40.583C87.8375 35.3033 87.8375 30.0235 87.8375 24.5838C88.7841 24.5838 89.7307 24.5838 90.7059 24.5838C90.727 25.4041 90.748 26.2245 90.7697 27.0697C90.938 26.8173 91.1062 26.5649 91.2796 26.3048C92.2558 25.0764 93.5524 24.3912 95.104 24.2124C95.3128 24.1943 95.5202 24.193 95.7296 24.1934Z" fill="white"/>
<path d="M176.885 24.5837C177.832 24.5837 178.779 24.5837 179.754 24.5837C179.754 29.8635 179.754 35.1432 179.754 40.583C178.807 40.583 177.861 40.583 176.885 40.583C176.885 35.3032 176.885 30.0235 176.885 24.5837Z" fill="white"/>
<path d="M179.231 18.061C179.759 18.3785 180.166 18.8199 180.328 19.4205C180.403 20.0786 180.377 20.6764 179.968 21.2162C179.551 21.7143 179.162 21.9949 178.507 22.0545C177.856 22.0736 177.375 21.9857 176.866 21.5717C176.458 21.1865 176.212 20.7506 176.17 20.1846C176.152 19.5159 176.263 19.0524 176.693 18.533C177.355 17.8537 178.359 17.65 179.231 18.061Z" fill="white"/>
<defs>
<linearGradient id="paint0_linear_15_152" x1="42.1208" y1="14.6936" x2="13.8891" y2="43.3607" gradientUnits="userSpaceOnUse">
<stop stop-color="#1ACFFE"/>
<stop offset="0.621817" stop-color="#7629FE"/>
<stop offset="1" stop-color="#5F28FF"/>
</linearGradient>
<radialGradient id="paint1_radial_15_152" cx="0" cy="0" r="1" gradientUnits="userSpaceOnUse" gradientTransform="translate(27.9342 28.9564) rotate(90) scale(20.0069 20.007)">
<stop/>
<stop offset="1" stop-opacity="0.5"/>
</radialGradient>
<linearGradient id="paint2_linear_15_152" x1="42.1208" y1="14.6936" x2="13.8891" y2="43.3607" gradientUnits="userSpaceOnUse">
<stop stop-color="#1ACFFE"/>
<stop offset="0.621817" stop-color="#7629FE"/>
<stop offset="1" stop-color="#5F28FF"/>
</linearGradient>
<radialGradient id="paint3_radial_15_152" cx="0" cy="0" r="1" gradientUnits="userSpaceOnUse" gradientTransform="translate(27.9342 28.9564) rotate(90) scale(20.0069 20.007)">
<stop/>
<stop offset="1" stop-opacity="0.5"/>
</radialGradient>
<linearGradient id="paint4_linear_15_152" x1="55.7173" y1="0.231846" x2="-1.81457" y2="55.9548" gradientUnits="userSpaceOnUse">
<stop offset="0.169872" stop-color="#1ACFFE"/>
<stop offset="0.57286" stop-color="#7629FE"/>
<stop offset="0.866427" stop-color="#5F28FF"/>
</linearGradient>
</defs>
</svg>
